# xmcd
#
# Track frame offsets:
#	150
#	14423
#	36163
#	48040
#	64765
#	78871
#	93896
#	111596
#
# Disc length: 1655 seconds
#
# Revision: 0
# Processed by: cddbd v1.5PL3 Copyright (c) Steve Scherf et al.
# Submitted via: dBpowerAMP V4.0
#
DISCID=5b067508
DTITLE=Gypsy and Crazymoon - Blues All Day/2003/4
DYEAR=1900
DGENRE=
TTITLE0=Chain Of Fools,by David Coval,arragement by Gypsy&Crazymoon
TTITLE1=All Out Of Lies-Gypsy&Crazymoon
TTITLE2=You Only Want Me When You Want Me by Gypsy&Crazymoon
TTITLE3=Never Quite Like This-Gypsy&Crazymoon
TTITLE4=Blues All Day-Gypsy&Crazymoon
TTITLE5=Honeybee-Public Domain Song-Arrangement by Gypsy&Crazymoon
TTITLE6=C'mon In My Kitchen,by Robert Johnson,Arrangement By Gypsy&Crazymmoon/BMI
TTITLE7=Checkin' On My Baby,Public Domain Song,Arrangement By Gypsy& Crazymoon
EXTD=Gypsy and Crazymoon
EXTT0=
EXTT1=
EXTT2=
EXTT3=
EXTT4=
EXTT5=
EXTT6=
EXTT7=
PLAYORDER=
